<?xml version="1.0" encoding="utf-8"?>
<!-- Generator: Adobe Illustrator 22.0.0, SVG Export Plug-In . SVG Version: 6.00 Build 0)  -->
<svg version="1.1" id="Layer_1" xmlns="http://www.w3.org/2000/svg" xmlns:xlink="http://www.w3.org/1999/xlink" x="0px" y="0px"
	 viewBox="0 0 125.5 86.4" style="enable-background:new 0 0 125.5 86.4;" xml:space="preserve">
<style type="text/css">
	.st0{fill-rule:evenodd;clip-rule:evenodd;fill:none;stroke:#177F53;stroke-width:0.5;stroke-miterlimit:10;}
	.st1{fill-rule:evenodd;clip-rule:evenodd;fill:none;stroke:#2EFFA5;stroke-width:0.5;stroke-miterlimit:10;}
	.st2{fill:none;stroke:#2EFFA5;stroke-width:0.5;stroke-miterlimit:10;}
</style>
<path class="st0" d="M74.5,56.6L47.1,45.3L41,29.8c-1-3.1-1.3-6.3,1.1-8.8L62.7,0.4c-1.1,1.6-2,4.1,0.1,9.2L80,52.2
	C82.1,57.8,78.8,58.5,74.5,56.6z"/>
<path class="st1" d="M21.6,41.8l53.1,21.6c5.1,2.1,7.6,1.2,9.2,0.1L63.3,84c-2.6,2.6-5.7,2.2-8.7,1.1L0.1,63.2L21.6,41.8z"/>
<path class="st2" d="M96.3,43.3c3.1,1,6.3,1.3,8.7-1.1l18-18l2.6-2.6c-1.5,1.1-3.7,1.8-8,0.4c-0.4-0.1-0.8-0.3-1.2-0.4l-8.3-3.4
	L73.9,4.5c-5.5-2.1-6.1,1.1-4.3,5.5L80.7,37L96.3,43.3z"/>
</svg>
