<?xml version="1.0" encoding="utf-8"?>
<!-- Generator: Adobe Illustrator 22.0.0, SVG Export Plug-In . SVG Version: 6.00 Build 0)  -->
<svg version="1.1" id="Layer_1" xmlns="http://www.w3.org/2000/svg" xmlns:xlink="http://www.w3.org/1999/xlink" x="0px" y="0px"
	 viewBox="0 0 125.4 85.5" style="enable-background:new 0 0 125.4 85.5;" xml:space="preserve">
<style type="text/css">
	.st0{clip-path:url(#SVGID_2_);fill-rule:evenodd;clip-rule:evenodd;fill:#2EFFA5;}
	.st1{clip-path:url(#SVGID_2_);fill-rule:evenodd;clip-rule:evenodd;fill:#177F53;}
	.st2{clip-path:url(#SVGID_2_);fill:#177F53;}
</style>
<g>
	<defs>
		<rect id="SVGID_1_" y="0" width="125.4" height="85.5"/>
	</defs>
	<clipPath id="SVGID_2_">
		<use xlink:href="#SVGID_1_"  style="overflow:visible;"/>
	</clipPath>
	<path class="st0" d="M74.4,56.2L47,44.9l-6.1-15.6c-1-3.1-1.3-6.3,1.1-8.8L62.6,0c-1.1,1.6-2,4.1,0.1,9.2l17.2,42.5
		C82,57.4,78.7,58,74.4,56.2"/>
	<path class="st1" d="M21.5,41.3l53.1,21.6c5.1,2.1,7.6,1.2,9.2,0.1L63.2,83.5c-2.6,2.6-5.7,2.2-8.7,1.1L0,62.8L21.5,41.3z"/>
	<path class="st2" d="M96.2,42.9c3.1,1,6.3,1.4,8.7-1.1l18-18l2.6-2.6c-1.5,1.1-3.7,1.8-8,0.4c-0.4-0.1-0.8-0.3-1.2-0.4l-8.3-3.4
		L73.8,4c-5.5-2.1-6.1,1.1-4.3,5.5l11.2,27.1L96.2,42.9z"/>
</g>
</svg>
