<?xml version="1.0" standalone="no"?>
<!DOCTYPE svg PUBLIC "-//W3C//DTD SVG 20010904//EN"
 "http://www.w3.org/TR/2001/REC-SVG-20010904/DTD/svg10.dtd">
<svg version="1.0" xmlns="http://www.w3.org/2000/svg"
 width="512.000000pt" height="512.000000pt" viewBox="0 0 512.000000 512.000000"
 preserveAspectRatio="xMidYMid meet">

<g transform="translate(0.000000,512.000000) scale(0.100000,-0.100000)"
fill="#000000" stroke="none">
<path d="M0 2560 l0 -2560 2560 0 2560 0 0 2560 0 2560 -2560 0 -2560 0 0
-2560z m1175 2375 c24 -23 25 -29 25 -160 0 -131 -1 -137 -25 -160 -15 -16
-36 -25 -55 -25 -19 0 -40 9 -55 25 -24 23 -25 29 -25 160 0 131 1 137 25 160
15 16 36 25 55 25 19 0 40 -9 55 -25z m-558 -317 c94 -92 106 -109 105 -151
-1 -56 -52 -86 -105 -63 -18 7 -69 52 -114 99 -66 67 -83 91 -83 114 0 46 34
83 77 83 31 0 46 -11 120 -82z m1178 57 c46 -45 36 -77 -57 -172 -95 -98 -135
-121 -176 -101 -15 7 -33 26 -40 41 -20 42 -3 72 97 171 100 97 130 108 176
61z m-510 -206 c175 -64 299 -216 328 -398 41 -265 -152 -522 -422 -564 -309
-47 -596 223 -567 535 18 196 146 362 331 426 82 29 98 31 190 27 51 -2 103
-12 140 -26z m-780 -414 c16 -15 25 -36 25 -55 0 -19 -9 -40 -25 -55 -23 -24
-29 -25 -160 -25 -131 0 -137 1 -160 25 -16 15 -25 36 -25 55 0 19 9 40 25 55
23 24 29 25 160 25 131 0 137 -1 160 -25z m1550 0 c16 -15 25 -36 25 -55 0
-19 -9 -40 -25 -55 -23 -24 -29 -25 -160 -25 -131 0 -137 1 -160 25 -16 15
-25 36 -25 55 0 19 9 40 25 55 23 24 29 25 160 25 131 0 137 -1 160 -25z
m-1354 -472 c23 -20 28 -56 14 -90 -7 -15 -51 -65 -98 -110 -74 -72 -89 -83
-120 -83 -43 0 -77 37 -77 83 0 23 17 47 83 114 107 112 149 130 198 86z m922
13 c18 -7 69 -52 115 -99 93 -95 103 -127 57 -172 -45 -46 -77 -36 -172 58
-98 94 -121 134 -101 175 7 14 24 32 38 39 31 16 24 16 63 -1z m2638 -86 c20
-6 51 -20 70 -33 77 -52 69 -27 359 -1144 l270 -1042 0 -181 c0 -179 0 -181
-25 -205 l-24 -25 -896 0 -895 0 0 -120 0 -120 235 0 236 0 24 -25 c25 -24 25
-26 25 -215 0 -189 0 -191 -25 -215 l-24 -25 -871 0 -871 0 -24 25 c-25 24
-25 26 -25 215 0 189 0 191 25 215 l24 25 236 0 235 0 0 120 0 120 -855 0
-856 0 -24 25 c-25 24 -25 26 -25 205 l0 181 205 791 c113 435 210 799 216
810 13 24 54 40 84 32 38 -9 59 -41 58 -85 l-2 -39 324 0 325 0 5 23 c2 12 14
75 24 141 11 65 27 129 36 142 32 49 105 39 132 -17 10 -21 9 -47 -7 -140 -11
-63 -20 -122 -20 -131 0 -17 23 -18 350 -18 l350 0 0 280 0 280 -289 0 c-277
0 -289 1 -315 21 -20 16 -26 29 -26 59 0 30 6 43 26 59 27 21 29 21 1108 21
693 0 1094 -4 1117 -10z m-3086 -125 c24 -23 25 -29 25 -160 0 -131 -1 -137
-25 -160 -15 -16 -36 -25 -55 -25 -19 0 -40 9 -55 25 -24 23 -25 29 -25 160 0
131 1 137 25 160 15 16 36 25 55 25 19 0 40 -9 55 -25z"/>
<path d="M1045 4331 c-100 -27 -188 -99 -232 -190 -36 -74 -38 -200 -5 -274
30 -66 104 -142 171 -174 47 -23 69 -27 141 -27 72 0 94 4 141 27 67 32 141
108 171 174 33 74 31 200 -5 274 -33 68 -109 142 -174 170 -53 22 -161 33
-208 20z"/>
<path d="M2800 3080 l0 -280 390 0 c348 0 390 2 390 16 0 16 -76 481 -85 522
l-5 22 -345 0 -345 0 0 -280z"/>
<path d="M3660 3344 c0 -16 76 -481 85 -521 l5 -23 325 0 c179 0 325 3 325 8
0 4 -29 120 -65 257 -55 211 -69 254 -90 273 -26 22 -30 22 -306 22 -247 0
-279 -2 -279 -16z"/>
<path d="M1006 2372 c-38 -147 -71 -273 -74 -279 -3 -10 72 -13 357 -13 l361
0 5 23 c9 40 85 505 85 521 0 14 -37 16 -332 16 l-333 0 -69 -268z"/>
<path d="M1905 2618 c-9 -41 -85 -506 -85 -522 0 -14 44 -16 410 -16 l410 0 0
280 0 280 -365 0 -365 0 -5 -22z"/>
<path d="M2800 2360 l0 -280 450 0 c403 0 450 2 450 16 0 16 -76 481 -85 522
l-5 22 -405 0 -405 0 0 -280z"/>
<path d="M3780 2624 c0 -16 76 -481 85 -521 l5 -23 361 0 c285 0 360 3 357 13
-3 6 -36 132 -74 279 l-69 268 -332 0 c-296 0 -333 -2 -333 -16z"/>
<path d="M885 1908 c-2 -7 -35 -133 -73 -280 l-68 -268 393 0 393 0 5 23 c9
40 85 505 85 521 0 14 -40 16 -365 16 -284 0 -367 -3 -370 -12z"/>
<path d="M1785 1898 c-9 -41 -85 -506 -85 -522 0 -14 49 -16 470 -16 l470 0 0
280 0 280 -425 0 -425 0 -5 -22z"/>
<path d="M2800 1640 l0 -280 510 0 c457 0 510 2 510 16 0 16 -76 481 -85 522
l-5 22 -465 0 -465 0 0 -280z"/>
<path d="M3900 1904 c0 -16 76 -481 85 -521 l5 -23 393 0 393 0 -71 278 -72
277 -367 3 c-329 2 -366 1 -366 -14z"/>
<path d="M720 1120 l0 -80 2040 0 2040 0 0 80 0 80 -2040 0 -2040 0 0 -80z"/>
<path d="M2480 760 l0 -120 240 0 240 0 0 120 0 120 -240 0 -240 0 0 -120z"/>
<path d="M1960 400 l0 -80 760 0 760 0 0 80 0 80 -760 0 -760 0 0 -80z"/>
</g>
</svg>
